<svg width="85" height="85" viewBox="0 0 85 85" fill="none" xmlns="http://www.w3.org/2000/svg">
<path id="chronic" d="M44.5238 50.1905L50.1905 44.5238L40.4762 34.8095V16.1905H32.381V38.0476L44.5238 50.1905ZM29.1429 63.8512C30.2222 60.6131 32.128 57.9315 34.8601 55.8065C37.5923 53.6815 40.746 52.619 44.3214 52.619H59.7024C61.3214 50.3254 62.5694 47.8125 63.4464 45.0804C64.3234 42.3482 64.7619 39.4643 64.7619 36.4286C64.7619 28.5357 62.0129 21.8403 56.5149 16.3423C51.0169 10.8442 44.3214 8.09524 36.4286 8.09524C28.5357 8.09524 21.8403 10.8442 16.3423 16.3423C10.8442 21.8403 8.09524 28.5357 8.09524 36.4286C8.09524 43.0397 10.0685 48.8581 14.0149 53.8839C17.9613 58.9097 23.004 62.2321 29.1429 63.8512ZM44.5238 85C40.6111 85 37.1706 83.7688 34.2024 81.3065C31.2341 78.8442 29.379 75.7579 28.6369 72.0476C20.4067 70.2937 13.5764 66.1111 8.14583 59.5C2.71528 52.8889 0 45.1984 0 36.4286C0 26.3095 3.54167 17.7083 10.625 10.625C17.7083 3.54167 26.3095 0 36.4286 0C46.5476 0 55.1488 3.54167 62.2321 10.625C69.3155 17.7083 72.8571 26.3095 72.8571 36.4286C72.8571 39.3294 72.5367 42.1458 71.8958 44.878C71.255 47.6101 70.3274 50.1905 69.1131 52.619C73.5655 52.619 77.3264 54.2044 80.3958 57.375C83.4653 60.5456 85 64.3571 85 68.8095C85 73.2619 83.4147 77.0734 80.244 80.244C77.0734 83.4147 73.2619 85 68.8095 85H44.5238ZM44.5238 76.9048H68.8095C71.0357 76.9048 72.9415 76.1121 74.5268 74.5268C76.1121 72.9415 76.9048 71.0357 76.9048 68.8095C76.9048 66.5833 76.1121 64.6776 74.5268 63.0923C72.9415 61.5069 71.0357 60.7143 68.8095 60.7143H44.5238C42.2976 60.7143 40.3919 61.5069 38.8065 63.0923C37.2212 64.6776 36.4286 66.5833 36.4286 68.8095C36.4286 71.0357 37.2212 72.9415 38.8065 74.5268C40.3919 76.1121 42.2976 76.9048 44.5238 76.9048ZM44.5238 72.8571C43.377 72.8571 42.4157 72.4692 41.6399 71.6935C40.8641 70.9177 40.4762 69.9563 40.4762 68.8095C40.4762 67.6627 40.8641 66.7014 41.6399 65.9256C42.4157 65.1498 43.377 64.7619 44.5238 64.7619C45.6706 64.7619 46.6319 65.1498 47.4077 65.9256C48.1835 66.7014 48.5714 67.6627 48.5714 68.8095C48.5714 69.9563 48.1835 70.9177 47.4077 71.6935C46.6319 72.4692 45.6706 72.8571 44.5238 72.8571ZM56.6667 72.8571C55.5198 72.8571 54.5585 72.4692 53.7827 71.6935C53.0069 70.9177 52.619 69.9563 52.619 68.8095C52.619 67.6627 53.0069 66.7014 53.7827 65.9256C54.5585 65.1498 55.5198 64.7619 56.6667 64.7619C57.8135 64.7619 58.7748 65.1498 59.5506 65.9256C60.3264 66.7014 60.7143 67.6627 60.7143 68.8095C60.7143 69.9563 60.3264 70.9177 59.5506 71.6935C58.7748 72.4692 57.8135 72.8571 56.6667 72.8571ZM68.8095 72.8571C67.6627 72.8571 66.7014 72.4692 65.9256 71.6935C65.1498 70.9177 64.7619 69.9563 64.7619 68.8095C64.7619 67.6627 65.1498 66.7014 65.9256 65.9256C66.7014 65.1498 67.6627 64.7619 68.8095 64.7619C69.9563 64.7619 70.9177 65.1498 71.6935 65.9256C72.4692 66.7014 72.8571 67.6627 72.8571 68.8095C72.8571 69.9563 72.4692 70.9177 71.6935 71.6935C70.9177 72.4692 69.9563 72.8571 68.8095 72.8571Z" fill="white"/>
</svg>
