<svg width="50" height="50" viewBox="0 0 50 50" fill="none" xmlns="http://www.w3.org/2000/svg">
<g id="credit_card">
<mask id="mask0_173_181" style="mask-type:alpha" maskUnits="userSpaceOnUse" x="0" y="0" width="50" height="50">
<rect id="Bounding box" width="50" height="50" fill="#D9D9D9"/>
</mask>
<g mask="url(#mask0_173_181)">
<path id="credit_card_2" d="M45.8334 12.5V37.5C45.8334 38.6458 45.4254 39.6267 44.6095 40.4427C43.7935 41.2587 42.8126 41.6666 41.6668 41.6666H8.33342C7.18758 41.6666 6.20668 41.2587 5.39071 40.4427C4.57473 39.6267 4.16675 38.6458 4.16675 37.5V12.5C4.16675 11.3541 4.57473 10.3732 5.39071 9.55727C6.20668 8.7413 7.18758 8.33331 8.33342 8.33331H41.6668C42.8126 8.33331 43.7935 8.7413 44.6095 9.55727C45.4254 10.3732 45.8334 11.3541 45.8334 12.5ZM8.33342 16.6666H41.6668V12.5H8.33342V16.6666ZM8.33342 25V37.5H41.6668V25H8.33342Z" fill="#005CA9"/>
</g>
</g>
</svg>
