<svg width="30" height="37" viewBox="0 0 30 37" fill="none" xmlns="http://www.w3.org/2000/svg">
<path d="M7.5 29.6H22.5V25.9H7.5V29.6ZM7.5 22.2H22.5V18.5H7.5V22.2ZM3.75 37C2.71875 37 1.83594 36.6377 1.10156 35.9131C0.367188 35.1885 0 34.3175 0 33.3V3.7C0 2.6825 0.367188 1.81146 1.10156 1.08688C1.83594 0.362292 2.71875 0 3.75 0H18.75L30 11.1V33.3C30 34.3175 29.6328 35.1885 28.8984 35.9131C28.1641 36.6377 27.2812 37 26.25 37H3.75ZM16.875 12.95V3.7H3.75V33.3H26.25V12.95H16.875Z" fill="#7F8C8D"/>
</svg>
