<svg width="45" height="45" viewBox="0 0 45 45" fill="none" xmlns="http://www.w3.org/2000/svg">
<g id="Group 17">
<path id="Vector" d="M35.0943 34.4222C34.2265 34.4254 33.3667 34.2565 32.5645 33.9254C31.7623 33.5943 31.0337 33.1076 30.4208 32.4933L23.67 25.7382C23.4312 25.5099 23.1136 25.3824 22.7832 25.3824C22.4528 25.3824 22.1352 25.5099 21.8964 25.7382L15.1228 32.5118C14.5103 33.127 13.7819 33.6148 12.9797 33.9468C12.1775 34.2789 11.3175 34.4487 10.4493 34.4465H9.12769L17.682 43.0008C18.965 44.281 20.7034 45 22.5159 45C24.3284 45 26.0668 44.281 27.3498 43.0008L35.9212 34.428L35.0943 34.4222Z" fill="#005CA9"/>
<path id="Vector_2" d="M10.4508 10.55C11.3189 10.5477 12.179 10.7174 12.9812 11.0495C13.7833 11.3816 14.5117 11.8694 15.1243 12.4847L21.8978 19.2597C22.1333 19.4944 22.4522 19.6262 22.7846 19.6262C23.1171 19.6262 23.436 19.4944 23.6714 19.2597L30.4208 12.5103C31.0328 11.8943 31.7611 11.4059 32.5634 11.0735C33.3656 10.7412 34.2259 10.5714 35.0943 10.5742H35.907L27.3355 2.00279C26.7008 1.36784 25.9472 0.864163 25.1178 0.520518C24.2884 0.176874 23.3994 0 22.5016 0C21.6038 0 20.7149 0.176874 19.8854 0.520518C19.056 0.864163 18.3024 1.36784 17.6677 2.00279L9.12769 10.55H10.4508Z" fill="#005CA9"/>
<path id="Vector_3" d="M42.9972 17.6657L37.8176 12.4861C37.7008 12.5338 37.5759 12.559 37.4497 12.5602H35.0945C33.8688 12.5633 32.694 13.05 31.8253 13.9146L25.0759 20.6597C24.4681 21.2664 23.6443 21.6072 22.7855 21.6072C21.9267 21.6072 21.1029 21.2664 20.4951 20.6597L13.7201 13.889C12.8516 13.0238 11.6767 12.5366 10.4509 12.5331H7.55956C7.44039 12.5304 7.32264 12.5068 7.21168 12.4633L1.99925 17.6657C0.719007 18.9487 0 20.6871 0 22.4996C0 24.3121 0.719007 26.0505 1.99925 27.3335L7.20027 32.5345C7.31099 32.4902 7.4289 32.4665 7.54815 32.4647H10.4509C11.6767 32.4611 12.8515 31.9738 13.7201 31.1088L20.4937 24.3352C21.7184 23.1119 23.8527 23.1119 25.0759 24.3352L31.8253 31.0831C32.694 31.9477 33.8688 32.4345 35.0945 32.4376H37.4497C37.576 32.4384 37.7009 32.4636 37.8176 32.5117L42.9972 27.3321C43.6322 26.6974 44.1358 25.9438 44.4795 25.1144C44.8231 24.2849 45 23.396 45 22.4982C45 21.6004 44.8231 20.7114 44.4795 19.882C44.1358 19.0526 43.6322 18.299 42.9972 17.6643" fill="#005CA9"/>
</g>
</svg>
