<svg width="150" height="62" viewBox="0 0 150 62" fill="none" xmlns="http://www.w3.org/2000/svg">
<g clip-path="url(#clip0_0_1)">
<path d="M66.4301 61.0805C61.9588 58.8183 58.3925 55.5447 55.8375 51.3395C55.1189 50.1419 54.4801 48.8644 53.9745 47.5603H49.6363C48.7314 47.5603 48.0394 47.4272 47.5603 47.1344C47.1079 46.8417 46.682 46.4158 46.2828 45.8303L42.9294 40.5872C45.7505 38.5911 47.9862 36.0361 49.6895 32.9755C50.9138 30.7664 51.6856 28.4244 52.0316 25.9758C52.1647 25.0443 52.2445 24.0862 52.2445 23.1014C52.2445 22.0368 52.1913 20.9989 52.0316 20.0141C51.6324 17.0067 50.6476 14.292 49.0507 11.8701C46.9216 8.62308 44.0738 6.09469 40.5075 4.23167C36.9411 2.39526 32.9755 1.46375 28.6107 1.46375H0V52.1912C0 57.4875 4.28495 61.7725 9.58126 61.7725H18.6036V44.8988H24.8847L30.66 54.6398C31.9375 56.7689 33.7473 58.4989 36.1427 59.803C38.5114 61.1337 41.226 61.7725 44.2867 61.7725H67.8939C67.3882 61.5329 66.9092 61.32 66.4301 61.0805ZM32.4698 27.1735C31.8311 28.2913 31.006 29.143 29.9681 29.7551C28.9301 30.3672 27.8389 30.66 26.6945 30.66H18.6036V16.0219H26.6945C27.8389 16.0219 28.9301 16.3147 29.9681 16.9268C31.006 17.539 31.8311 18.364 32.4698 19.4286C33.1086 20.4932 33.428 21.7707 33.428 23.2611C33.428 24.7515 33.1086 26.0557 32.4698 27.1735Z" fill="#005CA9"/>
<path d="M108.96 18.231V0C100.018 0 92.7786 7.23918 92.7786 16.1817V18.231H108.96Z" fill="#005CA9"/>
<path d="M89.9042 39.7888C89.7179 40.6671 89.4518 41.4655 89.0792 42.2374C88.3606 43.7012 87.3758 44.8456 86.0983 45.644C84.8474 46.4425 83.3038 46.8417 81.5206 46.8417C79.7906 46.8417 78.3002 46.4425 76.9961 45.644C75.692 44.8456 74.7073 43.7012 73.9887 42.2374C73.2701 40.7735 72.9241 39.1234 72.9241 37.287V3.32677C72.9241 1.7299 71.62 0.425781 70.0231 0.425781H54.6398V36.5152C54.6398 41.6784 55.7843 46.1763 58.0731 49.9556C60.362 53.7349 63.5557 56.6625 67.6012 58.7118C71.6466 60.7611 76.3041 61.7725 81.6004 61.7725C86.8169 61.7725 91.4479 60.7611 95.4667 58.7118C99.4855 56.6625 102.653 53.7615 104.941 49.9556C106.725 47.0014 107.816 43.5947 108.215 39.7888H89.9042Z" fill="#005CA9"/>
<path d="M150 22.3297H126.819V14.2654C126.819 6.38751 120.431 0 112.553 0V22.3297H103.212C95.7594 22.3297 89.7445 28.3712 89.7445 35.7967H112.553L112.66 44.819C112.74 52.7236 119.18 59.0845 127.085 59.0845L126.819 35.7967H136.533C143.959 35.7967 150 29.7818 150 22.3297Z" fill="#005CA9"/>
</g>
<path d="M-305 -952H1758V-956H-305V-952ZM1758 -952V1644H1762V-952H1758ZM1758 1644H-305V1648H1758V1644ZM-305 1644V-952H-309V1644H-305ZM-305 1644L-305 1644H-309C-309 1646.21 -307.209 1648 -305 1648V1644ZM1758 1644L1758 1644V1648C1760.21 1648 1762 1646.21 1762 1644H1758ZM1758 -952L1758 -952H1762C1762 -954.209 1760.21 -956 1758 -956V-952ZM-305 -956C-307.209 -956 -309 -954.209 -309 -952H-305L-305 -952V-956Z" fill="#005CA9"/>
<defs>
<clipPath id="clip0_0_1">
<rect width="150" height="61.7725" fill="#005CA9"/>
</clipPath>
</defs>
</svg>
