<svg width="177" height="177" viewBox="0 0 177 177" fill="none" xmlns="http://www.w3.org/2000/svg">
<g id="task_alt">
<mask id="mask0_199_330" style="mask-type:alpha" maskUnits="userSpaceOnUse" x="0" y="0" width="177" height="177">
<rect id="Bounding box" width="177" height="177" fill="#D9D9D9"/>
</mask>
<g mask="url(#mask0_199_330)">
<path id="task_alt_2" d="M88.5 162.25C78.2979 162.25 68.7104 160.314 59.7375 156.442C50.7646 152.57 42.9594 147.316 36.3219 140.678C29.6844 134.041 24.4297 126.235 20.5578 117.263C16.6859 108.29 14.75 98.7021 14.75 88.5C14.75 78.2979 16.6859 68.7104 20.5578 59.7375C24.4297 50.7646 29.6844 42.9594 36.3219 36.3219C42.9594 29.6844 50.7646 24.4297 59.7375 20.5578C68.7104 16.6859 78.2979 14.75 88.5 14.75C96.4896 14.75 104.049 15.9177 111.178 18.2531C118.307 20.5885 124.883 23.8458 130.906 28.025L120.213 38.9031C115.542 35.9531 110.564 33.6484 105.278 31.9891C99.9927 30.3297 94.4 29.5 88.5 29.5C72.1521 29.5 58.2318 35.2464 46.7391 46.7391C35.2464 58.2318 29.5 72.1521 29.5 88.5C29.5 104.848 35.2464 118.768 46.7391 130.261C58.2318 141.754 72.1521 147.5 88.5 147.5C104.848 147.5 118.768 141.754 130.261 130.261C141.754 118.768 147.5 104.848 147.5 88.5C147.5 86.2875 147.377 84.075 147.131 81.8625C146.885 79.65 146.517 77.499 146.025 75.4094L158.009 63.425C159.361 67.3583 160.406 71.4146 161.144 75.5938C161.881 79.7729 162.25 84.075 162.25 88.5C162.25 98.7021 160.314 108.29 156.442 117.263C152.57 126.235 147.316 134.041 140.678 140.678C134.041 147.316 126.235 152.57 117.263 156.442C108.29 160.314 98.7021 162.25 88.5 162.25ZM78.175 122.425L46.8312 91.0813L57.1562 80.7562L78.175 101.775L151.925 27.8406L162.25 38.1656L78.175 122.425Z" fill="white"/>
</g>
</g>
</svg>
